<svg xmlns="http://www.w3.org/2000/svg" viewBox="0 0 104 104" fill="none" overflow="visible">
  <defs>
    <linearGradient id="lm-box-front" x1="0" y1="0" x2="1" y2="0">
      <stop offset="0%" stop-color="#7a2222"/>
      <stop offset="60%" stop-color="#5a1a1a"/>
      <stop offset="100%" stop-color="#3a0f0f"/>
    </linearGradient>
    <linearGradient id="lm-box-side" x1="0" y1="0" x2="1" y2="0">
      <stop offset="0%" stop-color="#3a0f0f"/>
      <stop offset="100%" stop-color="#2a0808"/>
    </linearGradient>
    <linearGradient id="lm-lid-top" x1="0" y1="0" x2="0" y2="1">
      <stop offset="0%" stop-color="#7a2222"/>
      <stop offset="100%" stop-color="#4a1414"/>
    </linearGradient>
    <linearGradient id="lm-card-shadow" x1="0" y1="1" x2="0" y2="0" gradientUnits="objectBoundingBox">
      <stop offset="0%" stop-color="#000" stop-opacity="0.35"/>
      <stop offset="100%" stop-color="#000" stop-opacity="0"/>
    </linearGradient>
    <clipPath id="lm-above-rim" clipPathUnits="userSpaceOnUse">
      <polygon points="-10,-10 110,-10 110,24 72,24 60,32 24,36 -10,36"/>
    </clipPath>
    <clipPath id="lm-clip-back" clipPathUnits="userSpaceOnUse">
      <path d="M36 34.9 L 72 30.9 L 72 2 L 36 6 Z"/>
    </clipPath>
    <clipPath id="lm-clip-middle" clipPathUnits="userSpaceOnUse">
      <path d="M30 35.6 L 66 31.6 L 66 8 L 30 12 Z"/>
    </clipPath>
    <clipPath id="lm-clip-front" clipPathUnits="userSpaceOnUse">
      <path d="M24 36 L 60 32 L 60 14 L 24 18 Z"/>
    </clipPath>
  </defs>
  <g transform="translate(0,0)">
    <path d="M36 28 L 72 24 L 72 96 L 36 96 Z" fill="#3a0f0f" stroke="#d69e2e" stroke-width="0.6"/>
    <path d="M60 32 L 72 24 L 72 96 L 60 96 Z" fill="url(#lm-box-side)" stroke="#d69e2e" stroke-width="0.8"/>
    <path d="M24 36 L 60 32 L 60 96 L 24 96 Z" fill="url(#lm-box-front)" stroke="#d69e2e" stroke-width="1"/>
    <path d="M27 41 L 57 37 L 57 92 L 27 92 Z" fill="none" stroke="#d69e2e" stroke-width="0.5" opacity="0.75"/>
    <text x="42" y="72" text-anchor="middle" font-family="UnifrakturCook, serif" font-weight="700" font-size="26" fill="#d69e2e">R</text>
    <path d="M36 28 L 72 24 L 78 12 L 42 16 Z" fill="#3a0f0f" stroke="#d69e2e" stroke-width="0.8"/>
    <path d="M42 16 L 78 12 L 78 6 L 42 10 Z" fill="url(#lm-lid-top)" stroke="#d69e2e" stroke-width="0.8"/>
    <path d="M38.5 26.5 L 70.5 23 L 75 14 L 44 17.5 Z" fill="none" stroke="#d69e2e" stroke-width="0.35" opacity="0.55"/>
    <path d="M24 36 L 60 32 L 72 24 L 36 28 Z" fill="#120303" stroke="#d69e2e" stroke-width="0.9"/>
    <path d="M27 35.2 L 58 31.5 L 69 24.9 L 38 28.6 Z" fill="none" stroke="#d69e2e" stroke-width="0.3" opacity="0.55"/>
    <g clip-path="url(#lm-above-rim)">
      <g clip-path="url(#lm-clip-back)">
        <path d="M36 34.9 L 72 30.9 L 72 2 L 36 6 Z" fill="#faf3e0" stroke="#b5a67c" stroke-width="0.45"/>
        <path d="M36 34.9 L 72 30.9 L 72 28.9 L 36 32.9 Z" fill="url(#lm-card-shadow)"/>
      </g>
      <g clip-path="url(#lm-clip-middle)">
        <path d="M30 35.6 L 66 31.6 L 66 8 L 30 12 Z" fill="#f0e6cc" stroke="#b5a67c" stroke-width="0.45"/>
        <path d="M30 35.6 L 66 31.6 L 66 29.6 L 30 33.6 Z" fill="url(#lm-card-shadow)"/>
      </g>
      <g clip-path="url(#lm-clip-front)">
        <path d="M24 36 L 60 32 L 60 14 L 24 18 Z" fill="#faf3e0" stroke="#b5a67c" stroke-width="0.5"/>
        <path d="M24 36 L 60 32 L 60 30 L 24 34 Z" fill="url(#lm-card-shadow)"/>
      </g>
    </g>
  </g>
</svg>
